# xmcd
#
# Track frame offsets:
#	150
#	16558
#	36007
#	54369
#	71858
#	88169
#	107616
#	124055
#	143510
#	161899
#	179413
#	195762
#
# Disc length: 2872 seconds
#
# Revision: 0
# Processed by: cddbd v1.5.2PL0 Copyright (c) Steve Scherf et al.
# Submitted via: audiograbber 1.83.01
#
DISCID=960b360c
DTITLE=Martina McBride - CB20274 Artist Series Vol.274
DYEAR=1900
DGENRE=Country
TTITLE0=Martina McBride - Do What You Do (Vocals)
TTITLE1=Martina McBride - Make Me Believe (Vocals)
TTITLE2=Martina McBride - I Ain't Goin' Nowhere (Vocals)
TTITLE3=Martina McBride - Anything And Everything (Vocals)
TTITLE4=Martina McBride - It's My Time (Vocals)
TTITLE5=Martina McBride - Good Bye (Vocals)
TTITLE6=Martina McBride - Do What You Do
TTITLE7=Maritna McBride - Make Me Believe
TTITLE8=Martina McBride - I Ain't Goin' Nowhere
TTITLE9=Martina McBride - Anything And Everything
TTITLE10=Martina McBride - It's My Time
TTITLE11=Martina McBride - Good Bye
EXTD=
EXTT0=
EXTT1=
EXTT2=
EXTT3=
EXTT4=
EXTT5=
EXTT6=
EXTT7=
EXTT8=
EXTT9=
EXTT10=
EXTT11=
PLAYORDER=
